<?xml version="1.0" standalone="no"?>
<!DOCTYPE svg PUBLIC "-//W3C//DTD SVG 1.1//EN" 
"http://www.w3.org/Graphics/SVG/1.1/DTD/svg11.dtd">

<svg xmlns="http://www.w3.org/2000/svg" version="1.1" fill="#8590A6" viewBox="1 0 30 28" width="25" height="21">
    <path d="M16 17.672c0 1.359-0.891 2.328-2 2.328h-8c-1.109 0-2-0.969-2-2.328 0-2.422 0.594-5.109 3.062-5.109 0.766 0.438 1.797 1.188 2.938 1.188s2.172-0.75 2.938-1.188c2.469 0 3.062 2.688 3.062 5.109zM13.547 9.547c0 1.969-1.594 3.547-3.547 3.547s-3.547-1.578-3.547-3.547c0-1.953 1.594-3.547 3.547-3.547s3.547 1.594 3.547 3.547zM28 16.5v1c0 0.281-0.219 0.5-0.5 0.5h-9c-0.281 0-0.5-0.219-0.5-0.5v-1c0-0.281 0.219-0.5 0.5-0.5h9c0.281 0 0.5 0.219 0.5 0.5zM28 12.563v0.875c0 0.313-0.25 0.562-0.562 0.562h-8.875c-0.313 0-0.562-0.25-0.562-0.562v-0.875c0-0.313 0.25-0.562 0.562-0.562h8.875c0.313 0 0.562 0.25 0.562 0.562zM28 8.5v1c0 0.281-0.219 0.5-0.5 0.5h-9c-0.281 0-0.5-0.219-0.5-0.5v-1c0-0.281 0.219-0.5 0.5-0.5h9c0.281 0 0.5 0.219 0.5 0.5zM30 23.5v-19c0-0.266-0.234-0.5-0.5-0.5h-27c-0.266 0-0.5 0.234-0.5 0.5v19c0 0.266 0.234 0.5 0.5 0.5h5.5v-1.5c0-0.281 0.219-0.5 0.5-0.5h1c0.281 0 0.5 0.219 0.5 0.5v1.5h12v-1.5c0-0.281 0.219-0.5 0.5-0.5h1c0.281 0 0.5 0.219 0.5 0.5v1.5h5.5c0.266 0 0.5-0.234 0.5-0.5zM32 4.5v19c0 1.375-1.125 2.5-2.5 2.5h-27c-1.375 0-2.5-1.125-2.5-2.5v-19c0-1.375 1.125-2.5 2.5-2.5h27c1.375 0 2.5 1.125 2.5 2.5z"></path> 
</svg>