<?xml version="1.0" standalone="no"?>
<!DOCTYPE svg PUBLIC "-//W3C//DTD SVG 1.1//EN" 
"http://www.w3.org/Graphics/SVG/1.1/DTD/svg11.dtd">

<svg xmlns="http://www.w3.org/2000/svg" version="1.1" viewBox="0 -1 29 29" width="1.2em" height="1.2em" fill="#9FADC7">
    <path d="M10.241 19.313a.97.97 0 0 0-.77.2 7.908 7.908 0 0 1-3.772 1.482.409.409 0 0 1-.38-.637 5.825 5.825 0 0 0 1.11-2.237.605.605 0 0 0-.227-.59A7.935 7.935 0 0 1 3 11.25C3 6.7 7.03 3 12 3s9 3.7 9 8.25-4.373 9.108-10.759 8.063z" fill-rule="enenodd"></path>  
</svg>