<?xml version="1.0" standalone="no"?>
<!DOCTYPE svg PUBLIC "-//W3C//DTD SVG 1.1//EN" 
"http://www.w3.org/Graphics/SVG/1.1/DTD/svg11.dtd">

<svg xmlns="http://www.w3.org/2000/svg" version="1.1" viewBox="4 2 16 21" width="16" height="22" fill="#0077E6">
    <path d="M18.364 6.635c-1.561-1.559-4.1-1.559-5.658 0l-4.534 4.535c-0.473 0.473-0.733 1.1-0.733 1.77 0 0.668 0.261 1.295 0.732 1.768 0.487 0.486 1.128 0.73 1.769 0.73s1.279-0.242 1.767-0.73l2.122-2.121c0.391-0.395 0.586-0.904 0.586-1.414 0-0.512-0.195-1.023-0.586-1.414l-3.536 3.535c-0.193 0.195-0.511 0.195-0.708-0.002-0.127-0.127-0.146-0.275-0.146-0.352s0.019-0.227 0.146-0.354l4.535-4.537c0.778-0.779 2.048-0.779 2.83 0 0.779 0.779 0.779 2.049 0 2.828l-7.072 7.072c-0.779 0.779-2.049 0.779-2.828 0-0.78-0.779-0.78-2.049 0-2.828l0.095-0.096c-0.451-0.6-0.702-1.359-0.702-2.125l-0.807 0.807c-1.56 1.559-1.56 4.098 0 5.656 0.779 0.779 1.804 1.17 2.828 1.17s2.049-0.391 2.828-1.17l7.072-7.072c1.56-1.559 1.56-4.096 0-5.656z"></path> 
</svg>